<?xml version="1.0" standalone="no"?><!DOCTYPE svg PUBLIC "-//W3C//DTD SVG 1.1//EN" "http://www.w3.org/Graphics/SVG/1.1/DTD/svg11.dtd"><svg height="1024" node-id="1" sillyvg="true" template-height="1024" template-width="1024" version="1.1" viewBox="0 0 1024 1024" width="1024" xmlns="http://www.w3.org/2000/svg" xmlns:xlink="http://www.w3.org/1999/xlink"><defs node-id="46"></defs><path d="M 0.00 0.00 L 1024.00 0.00 L 1024.00 1024.00 L 0.00 1024.00 Z" fill="#ffffff" fill-opacity="0" fill-rule="nonzero" node-id="48" stroke="none" target-height="1024" target-width="1024" target-x="0" target-y="0"></path><path d="M 536.00 327.50 L 530.70 303.50 L 528.10 287.30 L 527.40 279.20 L 527.10 271.00 L 527.50 262.90 L 528.50 254.70 L 531.70 259.80 L 537.00 270.20 L 539.10 275.50 L 541.40 282.80 L 543.20 290.20 L 544.70 297.80 L 546.20 309.30 L 550.20 352.20 L 552.70 367.40 L 544.80 367.70 L 536.00 327.50 Z" fill="#020202" fill-rule="nonzero" node-id="50" stroke="none" target-height="113.000015" target-width="25.600037" target-x="527.1" target-y="254.7"></path><path d="M 812.60 802.50 L 810.40 799.70 L 809.10 797.10 L 808.40 794.90 L 808.30 792.80 L 808.70 790.80 L 809.70 789.00 L 811.30 787.10 L 813.60 785.20 L 816.50 785.20 L 818.90 785.70 L 820.80 786.70 L 822.50 788.20 L 823.90 789.90 L 825.60 794.00 L 826.00 798.30 L 825.10 802.30 L 824.30 803.80 L 823.10 805.00 L 821.60 805.70 L 819.70 806.00 L 817.90 805.70 L 815.60 804.60 L 812.60 802.50 Z" fill="#0e0f0e" fill-rule="nonzero" node-id="52" stroke="none" target-height="20.799988" target-width="17.700012" target-x="808.3" target-y="785.2"></path><path d="M 487.90 126.20 L 491.60 123.00 L 495.60 120.10 L 500.00 117.60 L 504.60 115.60 L 509.30 114.00 L 514.10 112.90 L 519.10 112.20 L 524.00 112.00 L 528.90 112.30 L 533.70 113.20 L 538.40 114.60 L 542.90 116.50 L 549.10 120.50 L 554.60 125.90 L 557.70 129.90 L 560.30 134.10 L 562.50 138.40 L 566.00 147.50 L 568.80 159.60 L 573.20 189.30 L 574.50 196.50 L 586.50 183.10 L 593.90 176.40 L 600.50 172.00 L 604.00 170.30 L 607.80 169.00 L 618.60 166.70 L 632.40 165.20 L 663.70 164.10 L 681.10 163.30 L 688.00 162.50 L 707.40 159.50 L 732.50 156.60 L 751.30 155.40 L 770.20 154.70 L 789.20 154.40 L 846.00 155.00 L 866.20 156.10 L 873.00 157.00 L 877.40 157.90 L 881.60 159.20 L 885.70 160.90 L 891.20 164.40 L 893.70 166.70 L 896.10 169.30 L 898.50 172.70 L 900.30 176.20 L 901.50 180.00 L 902.30 183.80 L 902.80 191.90 L 901.80 204.00 L 897.00 215.90 L 891.80 227.60 L 886.10 239.10 L 873.50 261.50 L 856.40 288.80 L 824.50 337.00 L 798.80 372.90 L 783.40 392.20 L 770.10 406.70 L 763.00 413.50 L 755.70 419.90 L 748.00 425.90 L 742.00 430.10 L 729.40 437.70 L 722.60 441.00 L 761.70 496.80 L 771.70 511.80 L 781.20 526.90 L 794.90 550.10 L 808.20 573.50 L 874.90 696.20 L 882.30 710.50 L 889.20 725.00 L 893.40 734.80 L 897.30 744.70 L 900.60 754.80 L 904.70 770.20 L 907.30 786.10 L 906.80 792.30 L 905.90 798.20 L 904.40 804.00 L 902.30 809.60 L 899.80 815.00 L 896.80 820.10 L 893.40 824.90 L 889.50 829.50 L 885.20 833.70 L 880.60 837.50 L 875.70 840.90 L 860.00 849.40 L 849.60 854.50 L 839.00 859.30 L 828.30 863.60 L 813.80 868.80 L 799.20 873.60 L 784.30 877.70 L 769.30 881.50 L 754.20 884.80 L 739.00 887.70 L 716.00 891.60 L 693.00 894.90 L 647.10 900.60 L 606.90 904.60 L 566.60 908.00 L 539.70 909.80 L 512.70 911.10 L 485.80 911.90 L 465.50 912.00 L 445.30 911.70 L 425.20 911.00 L 405.00 909.90 L 384.90 908.20 L 364.80 906.00 L 344.80 903.20 L 324.80 899.80 L 302.40 895.10 L 280.10 889.80 L 265.20 885.90 L 235.90 877.00 L 221.50 872.00 L 207.30 866.40 L 193.30 860.40 L 172.70 850.30 L 152.80 838.80 L 147.40 834.60 L 142.30 830.00 L 137.50 825.10 L 133.00 819.90 L 129.00 814.40 L 125.50 808.60 L 122.40 802.60 L 119.90 796.30 L 117.90 789.80 L 116.30 779.80 L 116.00 774.60 L 117.00 758.90 L 118.50 748.70 L 120.60 738.60 L 123.20 728.80 L 126.30 719.00 L 129.80 709.40 L 137.90 690.60 L 149.50 667.50 L 171.60 626.40 L 178.70 612.70 L 192.90 582.80 L 200.90 566.90 L 209.30 551.30 L 218.10 535.90 L 227.30 520.70 L 236.90 505.70 L 248.80 488.10 L 261.30 470.80 L 274.20 453.90 L 287.60 437.30 L 310.10 411.20 L 326.70 390.90 L 338.50 375.20 L 350.00 359.20 L 380.00 314.90 L 388.50 303.60 L 424.00 259.30 L 435.00 244.00 L 442.10 233.20 L 443.40 230.40 L 444.20 227.60 L 444.70 221.60 L 443.60 214.00 L 440.00 199.90 L 439.30 195.20 L 439.00 190.50 L 439.30 187.50 L 440.00 184.40 L 441.20 181.30 L 446.80 170.60 L 450.20 165.60 L 455.60 158.40 L 461.60 151.50 L 467.90 144.90 L 487.90 126.20 Z M 470.10 191.80 L 476.00 216.70 L 476.90 223.00 L 477.40 229.30 L 477.00 237.70 L 476.20 241.80 L 472.20 248.70 L 463.10 261.80 L 455.60 271.20 L 440.10 289.50 L 424.40 308.50 L 416.50 318.60 L 397.90 344.40 L 376.10 375.80 L 357.40 401.60 L 349.60 411.60 L 310.20 458.60 L 300.00 471.20 L 280.40 496.90 L 271.00 510.10 L 262.00 523.50 L 247.30 547.20 L 235.70 567.70 L 227.60 583.40 L 196.00 646.50 L 173.90 687.30 L 167.40 700.20 L 161.40 713.40 L 157.80 722.30 L 154.50 731.30 L 151.70 740.40 L 149.40 749.70 L 147.60 759.10 L 145.90 773.40 L 146.00 777.90 L 146.70 782.40 L 147.80 786.80 L 149.40 791.00 L 151.30 795.00 L 153.70 798.90 L 156.40 802.50 L 159.50 805.90 L 166.40 811.80 L 181.80 821.40 L 193.50 827.90 L 205.60 833.90 L 217.90 839.30 L 230.40 844.30 L 243.10 848.90 L 268.90 856.90 L 301.60 865.30 L 321.30 869.70 L 338.50 873.00 L 355.80 875.90 L 373.10 878.30 L 390.40 880.20 L 407.80 881.70 L 442.70 883.50 L 460.10 883.90 L 483.40 883.90 L 506.70 883.40 L 530.10 882.40 L 553.40 881.10 L 599.90 877.40 L 669.50 870.40 L 714.80 864.10 L 744.90 858.80 L 759.90 855.70 L 774.70 852.10 L 789.40 848.00 L 803.90 843.40 L 814.70 839.50 L 825.30 835.20 L 835.70 830.60 L 846.10 825.50 L 855.80 819.70 L 865.60 812.70 L 868.50 810.00 L 873.40 804.30 L 875.30 801.10 L 876.70 797.80 L 877.60 794.30 L 877.90 791.60 L 877.30 785.70 L 872.40 769.40 L 867.90 756.60 L 863.00 744.00 L 857.70 731.70 L 846.00 707.30 L 836.50 689.30 L 797.30 618.10 L 779.90 584.30 L 771.20 568.80 L 762.10 553.70 L 752.60 538.70 L 732.80 509.40 L 686.60 444.30 L 671.50 422.50 L 693.60 418.90 L 701.00 417.30 L 705.90 416.10 L 715.10 412.60 L 719.50 410.40 L 723.70 407.70 L 727.70 404.50 L 735.00 397.70 L 742.10 390.60 L 748.80 383.20 L 758.60 371.80 L 767.90 360.00 L 786.00 336.10 L 823.10 282.90 L 835.30 264.90 L 843.10 252.80 L 858.00 228.10 L 864.90 215.50 L 871.30 202.60 L 877.30 189.50 L 858.90 188.00 L 840.60 186.90 L 822.20 186.20 L 794.60 185.80 L 767.00 186.10 L 711.70 187.80 L 639.20 190.80 L 633.40 191.30 L 625.90 192.80 L 622.30 194.00 L 619.00 195.70 L 615.90 197.90 L 606.40 207.90 L 600.10 215.20 L 585.30 234.40 L 559.90 269.80 L 541.00 243.70 L 542.90 238.10 L 544.10 232.40 L 544.80 226.80 L 544.80 215.50 L 544.30 209.70 L 536.60 159.90 L 535.50 154.70 L 534.60 151.40 L 531.70 145.30 L 529.80 142.60 L 527.30 140.10 L 524.30 137.80 L 504.80 154.40 L 495.40 163.10 L 486.40 172.10 L 475.30 185.00 L 470.10 191.80 Z" fill="#feffff" fill-rule="nonzero" node-id="54" stroke="none" target-height="800" target-width="791.3" target-x="116" target-y="112"></path><path d="M 320.60 526.10 L 331.00 524.90 L 318.20 546.50 L 314.40 535.30 L 320.60 526.10 Z" fill="#161713" fill-rule="nonzero" node-id="56" stroke="none" target-height="21.599976" target-width="16.600006" target-x="314.4" target-y="524.9"></path><path d="M 444.00 810.20 L 446.90 808.20 L 450.10 807.70 L 453.30 808.50 L 455.50 809.70 L 457.40 811.50 L 458.40 812.80 L 459.40 815.90 L 459.50 817.50 L 459.10 819.10 L 458.20 820.90 L 456.80 822.20 L 455.30 823.10 L 453.80 823.60 L 450.50 823.40 L 448.80 822.90 L 446.60 821.50 L 444.70 819.70 L 443.70 818.30 L 442.70 815.20 L 442.70 813.50 L 443.10 811.90 L 444.00 810.20 Z" fill="#161713" fill-rule="nonzero" node-id="58" stroke="none" target-height="15.899963" target-width="16.799988" target-x="442.7" target-y="807.7"></path><path d="M 464.20 314.10 L 467.30 311.50 L 470.00 309.80 L 472.40 308.90 L 474.70 308.70 L 476.90 309.00 L 479.00 309.90 L 481.20 311.60 L 483.50 314.00 L 482.40 319.20 L 464.20 314.10 Z" fill="#ffe3bb" fill-rule="nonzero" node-id="60" stroke="none" target-height="10.5" target-width="19.299988" target-x="464.2" target-y="308.7"></path><path d="M 422.10 364.50 L 424.10 359.60 L 426.40 355.40 L 429.10 351.70 L 432.20 348.30 L 435.60 345.30 L 439.30 342.60 L 447.40 338.20 L 451.80 336.40 L 458.50 333.90 L 479.00 327.70 L 478.00 342.10 L 463.20 346.40 L 454.60 349.30 L 448.90 352.50 L 446.40 354.50 L 444.50 356.90 L 443.00 359.50 L 442.40 361.70 L 442.00 364.20 L 442.10 367.00 L 442.60 370.30 L 442.20 375.90 L 440.40 380.90 L 422.10 364.50 Z" fill="#fefaf5" fill-rule="nonzero" node-id="62" stroke="none" target-height="53.19998" target-width="56.899994" target-x="422.1" target-y="327.7"></path><path d="M 508.10 262.30 L 509.10 267.40 L 494.90 330.60 L 536.00 327.50 L 538.40 337.50 L 491.70 343.30 L 487.20 383.60 L 483.00 382.10 L 485.80 361.50 L 489.10 341.00 L 493.00 320.60 L 497.40 300.30 L 502.30 280.10 L 507.70 260.00 L 508.10 262.30 Z" fill="#fefeff" fill-rule="nonzero" node-id="64" stroke="none" target-height="123.600006" target-width="55.400024" target-x="483" target-y="260"></path><path d="M 487.10 196.60 L 489.40 191.90 L 492.10 187.40 L 495.30 183.30 L 498.80 179.50 L 506.40 172.30 L 518.60 162.30 L 515.70 174.80 L 502.20 186.30 L 487.10 196.60 Z" fill="#cdcbcf" fill-rule="nonzero" node-id="66" stroke="none" target-height="34.300003" target-width="31.49997" target-x="487.1" target-y="162.3"></path><path d="M 528.50 254.70 L 533.60 258.30 L 537.40 263.00 L 540.50 267.90 L 543.10 273.00 L 545.20 278.30 L 546.90 283.80 L 548.10 289.50 L 549.50 298.10 L 550.30 306.90 L 551.10 324.30 L 571.80 322.90 L 582.20 322.60 L 576.70 327.30 L 553.20 336.10 L 556.50 359.80 L 559.40 383.50 L 555.20 368.30 L 547.20 375.20 L 544.80 367.70 L 552.70 367.40 L 550.20 352.20 L 546.20 309.30 L 544.70 297.80 L 543.20 290.20 L 541.40 282.80 L 539.10 275.50 L 534.60 264.90 L 528.50 254.70 Z" fill="#fefbf2" fill-rule="nonzero" node-id="68" stroke="none" target-height="128.8" target-width="53.700012" target-x="528.5" target-y="254.7"></path><path d="M 717.70 339.40 L 719.20 335.60 L 722.90 329.20 L 725.30 326.30 L 728.70 322.90 L 732.60 319.80 L 736.80 317.10 L 745.80 312.50 L 757.80 308.20 L 764.80 306.10 L 766.50 307.50 L 767.50 308.80 L 768.00 310.10 L 768.10 313.00 L 767.60 314.60 L 765.00 319.10 L 761.40 323.20 L 755.30 329.30 L 752.40 331.60 L 746.20 334.90 L 739.30 337.00 L 728.50 338.60 L 717.70 339.40 Z" fill="#fefbf2" fill-rule="nonzero" node-id="70" stroke="none" target-height="33.299988" target-width="50.399963" target-x="717.7" target-y="306.1"></path><path d="M 301.20 501.90 L 316.80 481.30 L 362.60 426.80 L 374.70 411.70 L 382.60 401.40 L 390.00 390.80 L 397.20 380.00 L 434.20 385.90 L 452.80 388.30 L 471.50 390.20 L 468.90 411.10 L 460.90 487.80 L 456.70 515.60 L 460.50 500.10 L 463.60 484.60 L 466.40 469.00 L 473.90 421.90 L 479.70 390.60 L 497.60 391.10 L 515.50 391.10 L 551.50 390.10 L 569.00 473.90 L 573.80 494.80 L 579.00 515.50 L 575.00 494.20 L 571.40 472.90 L 561.50 408.70 L 557.80 387.30 L 563.70 386.70 L 587.30 382.40 L 593.20 381.70 L 599.10 381.40 L 604.90 381.80 L 607.10 388.20 L 612.40 400.60 L 617.20 409.60 L 622.40 418.30 L 679.40 502.70 L 696.10 528.30 L 712.40 554.20 L 722.90 571.70 L 733.10 589.40 L 742.80 607.30 L 752.20 625.40 L 761.00 643.80 L 769.30 662.50 L 781.70 692.30 L 787.70 707.40 L 793.20 722.60 L 796.60 732.80 L 802.30 753.50 L 804.50 764.10 L 806.20 774.70 L 807.30 785.50 L 797.90 789.60 L 788.50 793.30 L 779.00 796.50 L 769.40 799.40 L 756.50 802.70 L 743.40 805.50 L 730.20 807.90 L 710.30 810.80 L 690.20 813.10 L 650.20 817.00 L 525.80 827.30 L 494.60 829.50 L 463.40 831.10 L 442.60 831.90 L 401.00 832.20 L 380.30 831.60 L 359.50 830.50 L 338.90 828.80 L 323.40 827.20 L 307.90 825.10 L 292.50 822.60 L 277.00 819.70 L 266.50 817.50 L 235.20 809.90 L 224.80 807.60 L 214.20 805.70 L 200.10 804.20 L 190.50 803.90 L 181.40 797.30 L 176.90 793.60 L 172.90 789.70 L 170.50 786.80 L 168.70 783.70 L 167.20 780.50 L 166.50 777.90 L 166.20 772.30 L 168.30 759.30 L 170.40 749.70 L 173.10 740.30 L 176.30 731.10 L 179.90 722.00 L 183.90 713.10 L 190.30 699.90 L 218.40 647.80 L 235.80 611.60 L 247.40 588.80 L 255.40 573.80 L 272.50 544.30 L 281.60 529.90 L 291.10 515.80 L 301.20 501.90 Z M 386.60 440.20 L 383.50 441.60 L 380.50 444.70 L 379.20 447.10 L 378.40 449.60 L 378.10 452.10 L 378.80 455.10 L 380.60 457.50 L 382.10 458.30 L 384.10 459.00 L 386.40 459.20 L 388.40 458.90 L 390.30 458.20 L 392.00 457.10 L 394.70 454.10 L 396.10 451.40 L 396.90 448.50 L 397.00 444.80 L 395.80 441.70 L 394.70 440.60 L 393.30 439.80 L 391.60 439.40 L 389.40 439.50 L 386.60 440.20 Z M 353.10 478.20 L 348.50 489.70 L 347.70 493.50 L 348.40 495.60 L 349.10 496.30 L 350.40 496.70 L 352.50 496.80 L 355.50 497.80 L 358.10 498.10 L 360.30 497.80 L 362.30 497.00 L 364.20 495.80 L 365.90 494.10 L 367.90 491.20 L 369.60 487.80 L 371.60 480.60 L 353.10 478.20 Z M 320.60 526.10 L 314.40 535.30 L 318.20 546.50 L 331.00 524.90 L 320.60 526.10 Z M 605.60 579.60 L 617.10 581.70 L 652.00 586.20 L 651.50 583.10 L 650.50 580.20 L 649.00 577.60 L 647.10 575.10 L 644.80 572.90 L 642.10 571.00 L 636.20 567.90 L 633.00 566.70 L 626.40 565.40 L 619.90 565.30 L 617.00 565.80 L 614.20 566.60 L 611.70 567.80 L 609.60 569.40 L 607.80 571.30 L 606.90 573.00 L 605.70 577.10 L 605.60 579.60 Z M 326.30 584.60 L 339.90 584.20 L 353.60 583.30 L 362.70 582.40 L 380.70 579.70 L 378.80 576.50 L 376.60 573.80 L 374.30 571.50 L 371.60 569.70 L 368.80 568.20 L 362.70 566.40 L 359.40 566.00 L 355.10 566.00 L 350.70 566.50 L 346.30 567.70 L 342.10 569.40 L 338.20 571.50 L 334.50 574.10 L 332.00 576.40 L 327.90 581.60 L 326.30 584.60 Z M 332.90 641.00 L 329.90 643.60 L 325.20 649.40 L 323.30 652.60 L 321.20 657.00 L 319.70 661.70 L 318.60 666.60 L 317.90 671.70 L 317.70 681.70 L 303.10 682.80 L 293.50 684.50 L 288.90 685.80 L 284.40 687.50 L 280.10 689.70 L 275.90 692.40 L 273.60 695.20 L 271.90 698.20 L 270.80 701.40 L 270.30 704.80 L 270.30 708.20 L 270.80 711.60 L 271.80 714.80 L 273.30 717.90 L 275.30 720.60 L 279.20 724.00 L 281.40 725.30 L 289.70 728.40 L 295.40 730.20 L 301.30 731.50 L 313.40 733.10 L 325.50 733.30 L 337.60 731.90 L 343.50 730.60 L 349.20 729.00 L 354.90 726.90 L 359.80 724.50 L 362.00 722.70 L 363.90 720.80 L 367.00 716.20 L 368.80 711.00 L 369.20 708.30 L 369.10 705.60 L 368.60 702.90 L 367.60 700.30 L 365.50 697.00 L 363.00 694.20 L 360.20 691.80 L 353.90 688.20 L 344.90 685.20 L 328.40 682.10 L 336.50 669.40 L 339.70 665.10 L 343.10 661.10 L 346.70 657.70 L 349.40 655.90 L 352.20 654.50 L 355.20 653.60 L 357.40 653.30 L 362.40 653.80 L 368.10 655.70 L 382.10 663.00 L 385.50 664.50 L 387.80 665.20 L 391.80 665.60 L 393.60 665.20 L 395.20 664.30 L 396.70 662.90 L 397.70 661.20 L 398.60 658.60 L 399.30 655.00 L 397.70 651.10 L 395.80 647.60 L 393.50 644.40 L 390.90 641.50 L 387.90 639.00 L 381.30 634.80 L 377.70 633.20 L 372.60 631.60 L 367.40 630.60 L 362.00 630.20 L 358.00 630.30 L 350.10 631.50 L 342.60 634.20 L 339.20 636.10 L 335.90 638.40 L 332.90 641.00 Z M 607.40 631.90 L 603.70 633.50 L 599.80 635.90 L 596.10 638.80 L 592.80 642.20 L 589.30 647.10 L 588.10 649.60 L 587.40 652.20 L 587.30 654.80 L 587.80 657.30 L 588.50 659.10 L 591.30 662.70 L 593.50 664.50 L 596.20 664.60 L 598.80 664.20 L 601.20 663.40 L 604.80 661.60 L 618.80 652.00 L 622.50 650.40 L 625.00 649.80 L 627.70 649.60 L 630.70 649.90 L 636.40 652.70 L 638.90 654.50 L 642.30 657.60 L 645.30 661.20 L 656.40 676.50 L 630.40 686.50 L 624.10 689.50 L 618.00 692.80 L 615.30 696.40 L 613.50 701.60 L 612.20 715.30 L 611.60 718.50 L 618.00 722.00 L 624.60 725.00 L 631.40 727.50 L 638.50 729.50 L 645.60 731.00 L 652.80 732.00 L 660.00 732.40 L 667.30 732.40 L 674.60 731.80 L 681.70 730.70 L 688.80 729.00 L 695.80 726.80 L 700.70 724.00 L 705.40 719.90 L 709.00 715.00 L 710.40 712.40 L 711.20 709.60 L 711.60 704.80 L 710.40 700.60 L 707.00 695.60 L 704.70 693.10 L 702.20 691.00 L 696.40 687.80 L 693.30 686.60 L 683.40 684.10 L 663.40 680.70 L 664.90 676.70 L 665.80 672.70 L 666.20 668.90 L 666.10 665.00 L 665.50 661.20 L 664.60 657.50 L 663.20 653.90 L 661.50 650.40 L 658.70 646.00 L 655.30 642.00 L 651.50 638.30 L 647.30 635.10 L 642.70 632.40 L 637.90 630.30 L 634.20 629.00 L 626.50 627.70 L 622.60 627.60 L 618.80 628.00 L 614.90 628.80 L 611.20 630.10 L 607.40 631.90 Z M 451.80 635.70 L 451.00 645.40 L 450.60 655.00 L 450.60 664.70 L 451.90 684.00 L 453.10 693.60 L 456.40 712.60 L 458.50 722.10 L 460.30 728.30 L 462.70 734.80 L 466.90 742.90 L 469.40 746.70 L 472.20 750.20 L 475.30 753.30 L 478.80 756.00 L 484.60 759.00 L 491.40 760.70 L 495.30 760.90 L 498.90 760.70 L 502.40 760.00 L 505.60 758.80 L 511.70 755.40 L 514.50 753.30 L 520.20 747.10 L 523.00 743.10 L 525.50 738.90 L 529.20 729.90 L 533.10 714.40 L 535.30 703.30 L 537.00 692.10 L 538.40 680.90 L 539.20 669.50 L 539.60 658.20 L 539.40 646.90 L 538.80 635.60 L 524.30 634.80 L 495.30 634.20 L 480.80 634.40 L 451.80 635.70 Z M 368.50 778.90 L 369.00 783.30 L 370.20 788.00 L 371.80 792.80 L 373.90 797.40 L 377.50 803.00 L 381.90 807.70 L 384.40 809.60 L 387.10 811.00 L 390.00 812.00 L 393.10 812.60 L 396.40 812.50 L 397.30 809.80 L 397.90 806.80 L 398.00 803.50 L 397.20 797.00 L 396.30 793.60 L 393.60 787.30 L 389.80 781.80 L 387.60 779.60 L 385.30 777.80 L 382.70 776.40 L 380.00 775.60 L 377.30 775.40 L 375.20 775.60 L 370.90 777.30 L 368.50 778.90 Z M 444.00 810.20 L 443.10 811.90 L 442.70 813.50 L 442.70 815.20 L 443.70 818.30 L 444.70 819.70 L 446.60 821.50 L 448.80 822.90 L 452.10 823.70 L 455.30 823.10 L 456.80 822.20 L 458.20 820.90 L 459.10 819.10 L 459.50 817.50 L 459.00 814.30 L 457.40 811.50 L 455.50 809.70 L 453.30 808.50 L 450.00 807.70 L 446.80 808.20 L 444.00 810.20 Z" fill="#fefbf2" fill-rule="nonzero" node-id="72" stroke="none" target-height="452.2" target-width="641.1" target-x="166.2" target-y="380"></path><path d="M 470.10 191.80 L 475.30 185.00 L 486.40 172.10 L 495.40 163.10 L 504.80 154.40 L 524.30 137.80 L 527.30 140.10 L 529.80 142.60 L 531.70 145.30 L 534.60 151.40 L 535.50 154.70 L 536.60 159.90 L 544.30 209.70 L 544.80 215.50 L 544.80 226.80 L 544.10 232.40 L 542.90 238.10 L 541.00 243.70 L 559.90 269.80 L 585.30 234.40 L 600.10 215.20 L 606.40 207.90 L 615.90 197.90 L 619.00 195.70 L 622.30 194.00 L 625.90 192.80 L 633.40 191.30 L 639.20 190.80 L 711.70 187.80 L 767.00 186.10 L 794.60 185.80 L 822.20 186.20 L 840.60 186.90 L 858.90 188.00 L 877.30 189.50 L 871.30 202.60 L 864.90 215.50 L 858.00 228.10 L 843.10 252.80 L 835.30 264.90 L 823.10 282.90 L 786.00 336.10 L 767.90 360.00 L 758.60 371.80 L 748.80 383.20 L 742.10 390.60 L 735.00 397.70 L 727.70 404.50 L 723.70 407.70 L 719.50 410.40 L 715.10 412.60 L 705.90 416.10 L 701.00 417.30 L 693.60 418.90 L 671.50 422.50 L 686.60 444.30 L 732.80 509.40 L 742.80 524.00 L 762.10 553.70 L 771.20 568.80 L 779.90 584.30 L 797.30 618.10 L 836.50 689.30 L 852.00 719.40 L 863.00 744.00 L 867.90 756.60 L 872.40 769.40 L 877.30 785.70 L 877.80 788.70 L 877.60 794.30 L 876.70 797.80 L 875.30 801.10 L 873.40 804.30 L 868.50 810.00 L 860.80 816.30 L 846.10 825.50 L 835.70 830.60 L 825.30 835.20 L 814.70 839.50 L 803.90 843.40 L 789.40 848.00 L 774.70 852.10 L 759.90 855.70 L 744.90 858.80 L 714.80 864.10 L 669.50 870.40 L 634.80 874.10 L 576.70 879.40 L 530.10 882.40 L 506.70 883.40 L 483.40 883.90 L 460.10 883.90 L 442.70 883.60 L 407.80 881.70 L 390.40 880.20 L 373.10 878.30 L 355.80 875.90 L 338.50 873.00 L 321.30 869.70 L 301.60 865.30 L 281.90 860.50 L 268.90 856.90 L 243.10 848.90 L 230.40 844.30 L 217.90 839.30 L 205.60 833.90 L 193.50 827.90 L 181.80 821.40 L 166.40 811.80 L 159.50 805.90 L 156.40 802.50 L 153.70 798.90 L 151.30 795.00 L 149.30 791.00 L 147.80 786.80 L 146.70 782.40 L 146.00 777.90 L 145.90 773.40 L 147.60 759.10 L 149.40 749.70 L 151.70 740.40 L 154.50 731.30 L 157.80 722.30 L 161.40 713.40 L 167.40 700.20 L 173.90 687.30 L 196.00 646.50 L 227.60 583.40 L 235.70 567.70 L 247.30 547.20 L 262.00 523.50 L 271.00 510.10 L 290.10 484.00 L 310.20 458.60 L 349.60 411.60 L 357.40 401.60 L 376.10 375.80 L 397.90 344.40 L 416.50 318.60 L 424.40 308.50 L 455.60 271.20 L 463.10 261.80 L 472.20 248.70 L 476.20 241.80 L 477.40 233.50 L 477.40 229.30 L 476.90 223.00 L 474.70 210.40 L 470.10 191.80 Z M 487.10 196.60 L 488.40 202.50 L 492.20 226.60 L 495.10 236.10 L 498.70 243.20 L 494.00 246.50 L 489.50 250.20 L 485.30 254.20 L 479.50 260.70 L 473.90 267.60 L 452.80 296.70 L 449.00 301.30 L 440.70 309.70 L 441.00 310.10 L 404.40 368.10 L 409.90 371.30 L 415.60 374.10 L 421.60 376.30 L 434.00 379.70 L 440.40 380.90 L 442.20 375.90 L 442.60 370.30 L 443.90 373.70 L 445.50 376.40 L 447.40 378.50 L 449.60 380.30 L 452.10 381.70 L 454.90 382.80 L 459.20 384.00 L 473.30 385.90 L 475.30 371.40 L 476.90 356.80 L 479.00 327.70 L 482.40 319.20 L 483.50 318.90 L 484.90 300.00 L 485.80 290.50 L 487.20 281.20 L 488.50 275.00 L 490.20 269.00 L 492.30 263.20 L 494.80 257.50 L 498.00 252.00 L 501.70 246.60 L 508.20 253.90 L 508.10 262.30 L 507.70 260.00 L 502.30 280.10 L 497.40 300.30 L 493.00 320.60 L 489.10 341.00 L 485.80 361.50 L 483.00 382.10 L 487.20 383.60 L 494.90 383.80 L 518.60 385.30 L 523.80 385.30 L 534.00 384.20 L 539.00 383.00 L 543.80 381.20 L 548.60 378.70 L 547.20 375.20 L 555.20 368.30 L 559.40 383.50 L 588.70 377.70 L 598.00 374.50 L 605.10 370.60 L 601.90 362.60 L 596.50 353.20 L 592.70 347.90 L 576.70 327.30 L 582.20 322.60 L 571.80 322.90 L 551.10 324.30 L 550.30 306.90 L 549.50 298.10 L 548.10 289.50 L 546.90 283.80 L 545.20 278.30 L 543.10 273.00 L 540.50 267.90 L 537.40 263.00 L 533.60 258.30 L 528.70 237.50 L 519.80 195.70 L 515.70 174.80 L 518.60 162.30 L 506.40 172.30 L 498.80 179.50 L 495.30 183.30 L 492.10 187.40 L 489.40 191.90 L 487.10 196.60 Z M 658.70 199.90 L 654.70 199.20 L 647.50 198.90 L 644.10 199.40 L 639.60 200.50 L 635.40 202.10 L 631.50 204.20 L 627.70 206.70 L 624.20 209.60 L 620.80 212.90 L 616.20 218.30 L 612.00 224.10 L 608.20 230.20 L 604.90 236.40 L 593.50 251.00 L 588.20 258.50 L 580.20 271.70 L 575.00 282.90 L 575.40 287.00 L 576.30 290.90 L 577.70 294.60 L 579.50 298.10 L 584.00 304.80 L 588.10 309.50 L 601.40 322.00 L 606.10 335.00 L 615.60 331.00 L 634.10 322.00 L 647.60 314.70 L 661.00 306.90 L 687.20 290.80 L 703.00 283.30 L 733.90 267.10 L 807.90 225.60 L 823.40 216.30 L 835.00 208.00 L 840.60 203.40 L 845.80 198.40 L 850.70 193.00 L 818.70 193.10 L 786.70 193.80 L 754.70 194.90 L 722.70 196.30 L 658.70 199.90 Z M 847.50 207.40 L 799.50 234.70 L 775.70 248.80 L 752.30 263.40 L 736.90 273.50 L 721.80 283.90 L 707.10 294.70 L 699.00 298.00 L 691.00 301.70 L 683.30 305.70 L 672.00 312.20 L 627.80 340.40 L 616.60 347.00 L 641.20 382.20 L 650.10 395.80 L 653.30 400.10 L 656.70 403.90 L 659.30 406.00 L 662.00 407.70 L 665.00 408.90 L 669.80 409.70 L 687.40 408.00 L 693.30 406.90 L 699.20 405.40 L 704.80 403.50 L 710.20 401.10 L 714.10 398.90 L 721.10 393.90 L 724.30 390.90 L 727.20 387.60 L 729.80 384.10 L 732.10 380.10 L 734.10 375.80 L 745.60 368.40 L 793.80 305.70 L 809.60 284.50 L 830.10 255.90 L 849.40 226.50 L 858.60 211.50 L 867.40 196.20 L 863.20 196.70 L 859.40 197.80 L 856.00 199.40 L 852.90 201.50 L 850.10 204.10 L 847.50 207.40 Z M 605.80 378.70 L 604.90 381.80 L 599.10 381.40 L 593.20 381.70 L 587.30 382.40 L 563.70 386.70 L 557.80 387.30 L 561.50 408.70 L 571.40 472.90 L 575.00 494.20 L 579.00 515.50 L 573.80 494.80 L 569.00 473.90 L 551.50 390.10 L 515.50 391.10 L 497.60 391.10 L 479.70 390.60 L 473.90 421.90 L 466.40 469.00 L 463.70 484.60 L 460.50 500.10 L 456.70 515.60 L 460.90 487.80 L 468.90 411.10 L 471.50 390.20 L 452.80 388.30 L 434.20 385.90 L 397.20 380.00 L 390.00 390.80 L 382.60 401.40 L 374.70 411.70 L 362.60 426.80 L 325.00 471.30 L 308.90 491.50 L 291.20 515.80 L 281.60 529.90 L 272.50 544.30 L 255.40 573.80 L 247.40 588.80 L 235.80 611.60 L 218.40 647.80 L 190.30 699.90 L 183.90 713.10 L 179.90 722.00 L 176.30 731.10 L 173.10 740.30 L 170.40 749.70 L 168.30 759.30 L 166.20 772.30 L 166.50 777.90 L 167.20 780.50 L 168.70 783.70 L 170.50 786.80 L 172.90 789.70 L 176.90 793.60 L 181.40 797.30 L 190.60 803.90 L 192.90 804.00 L 201.30 809.10 L 209.90 813.80 L 218.70 818.00 L 227.70 821.90 L 246.00 828.80 L 260.10 833.30 L 274.20 837.40 L 302.70 845.00 L 322.00 849.30 L 341.40 853.00 L 360.80 856.10 L 380.30 858.60 L 399.80 860.60 L 419.40 862.10 L 439.00 863.10 L 458.60 863.70 L 484.80 863.70 L 511.10 863.20 L 537.40 862.10 L 563.60 860.40 L 589.80 858.30 L 616.00 855.90 L 655.20 851.60 L 694.20 847.00 L 728.20 841.60 L 745.20 838.40 L 762.20 834.80 L 773.50 832.10 L 795.50 825.50 L 806.30 821.70 L 817.00 817.40 L 827.40 812.60 L 842.50 804.40 L 857.00 794.80 L 854.30 784.80 L 851.30 774.90 L 847.90 765.20 L 840.00 746.10 L 828.80 722.80 L 821.60 709.00 L 796.00 662.00 L 764.30 602.30 L 753.50 582.50 L 742.20 563.10 L 726.20 537.70 L 717.70 525.30 L 691.50 489.10 L 613.60 379.90 L 605.80 378.70 Z" fill="#000101" fill-rule="nonzero" node-id="74" stroke="none" target-height="746.10004" target-width="731.9" target-x="145.9" target-y="137.8"></path><path d="M 502.20 186.30 L 515.70 174.80 L 524.10 216.60 L 533.60 258.30 L 528.50 254.70 L 527.50 262.90 L 527.10 271.00 L 527.40 279.20 L 529.20 295.40 L 530.70 303.50 L 536.00 327.50 L 494.90 330.60 L 509.10 267.40 L 508.10 262.30 L 508.60 236.90 L 507.60 219.90 L 504.40 197.50 L 502.20 186.30 Z" fill="#4e6e00" fill-rule="nonzero" node-id="76" stroke="none" target-height="155.8" target-width="41.100006" target-x="494.9" target-y="174.8"></path><path d="M 487.10 196.60 L 502.20 186.30 L 506.20 208.70 L 507.60 219.90 L 508.60 236.90 L 508.20 253.90 L 498.70 243.20 L 495.10 236.10 L 492.20 226.60 L 488.40 202.50 L 487.10 196.60 Z" fill="#193006" fill-rule="nonzero" node-id="78" stroke="none" target-height="67.59999" target-width="21.5" target-x="487.1" target-y="186.3"></path><path d="M 658.70 199.90 L 722.70 196.30 L 754.70 194.90 L 786.70 193.80 L 818.70 193.10 L 850.70 193.00 L 845.80 198.40 L 840.60 203.40 L 835.00 208.00 L 823.40 216.30 L 807.90 225.60 L 733.90 267.10 L 718.50 275.30 L 703.00 283.30 L 687.20 290.80 L 680.20 291.60 L 674.50 291.00 L 671.00 289.80 L 667.90 288.20 L 665.10 286.10 L 662.60 283.60 L 660.30 280.70 L 658.30 277.50 L 655.70 272.30 L 653.50 266.70 L 650.10 255.00 L 647.40 244.00 L 642.20 242.50 L 649.90 244.10 L 669.10 251.20 L 674.10 252.00 L 679.40 252.30 L 684.90 252.10 L 690.40 251.40 L 695.90 250.20 L 701.40 248.50 L 706.70 246.40 L 711.70 243.80 L 716.40 240.70 L 722.80 235.30 L 728.00 229.10 L 730.10 225.60 L 731.80 221.90 L 733.20 218.10 L 734.10 213.90 L 726.20 214.50 L 718.50 215.50 L 710.80 217.00 L 703.20 218.90 L 695.80 221.30 L 688.50 224.10 L 681.40 227.30 L 674.50 231.00 L 662.30 231.80 L 655.70 222.10 L 658.70 199.90 Z" fill="#adea2e" fill-rule="nonzero" node-id="80" stroke="none" target-height="98.600006" target-width="208.5" target-x="642.2" target-y="193"></path><path d="M 604.90 236.40 L 608.20 230.20 L 612.00 224.10 L 616.20 218.30 L 620.80 212.90 L 624.20 209.60 L 627.70 206.70 L 631.50 204.20 L 635.40 202.10 L 639.60 200.50 L 644.10 199.40 L 651.00 198.90 L 658.70 199.90 L 655.70 222.10 L 645.90 205.70 L 632.50 240.50 L 642.20 242.50 L 647.40 244.00 L 651.60 260.90 L 653.50 266.70 L 655.70 272.30 L 658.30 277.50 L 660.30 280.70 L 662.60 283.60 L 665.10 286.10 L 667.90 288.20 L 671.00 289.80 L 674.50 291.00 L 680.20 291.60 L 687.20 290.80 L 661.00 306.90 L 647.60 314.70 L 634.10 322.00 L 615.60 331.00 L 606.10 335.00 L 599.10 315.00 L 597.40 307.90 L 596.30 300.70 L 595.70 293.50 L 595.60 286.30 L 595.90 279.10 L 597.70 264.60 L 599.10 257.50 L 601.80 246.80 L 604.90 236.40 Z" fill="#5d9e1a" fill-rule="nonzero" node-id="82" stroke="none" target-height="136.1" target-width="91.60004" target-x="595.6" target-y="198.9"></path><path d="M 847.50 207.40 L 850.10 204.10 L 852.90 201.50 L 856.00 199.40 L 859.40 197.80 L 863.20 196.70 L 867.40 196.20 L 858.60 211.50 L 849.40 226.50 L 830.10 255.90 L 809.60 284.50 L 793.80 305.70 L 745.60 368.40 L 719.30 366.40 L 710.60 365.50 L 702.00 364.10 L 693.50 362.10 L 688.00 360.40 L 682.60 358.30 L 677.20 355.70 L 669.40 350.90 L 666.50 347.70 L 665.50 345.90 L 664.90 343.80 L 664.90 341.30 L 671.30 333.00 L 678.10 325.10 L 707.10 294.70 L 721.90 283.90 L 736.90 273.50 L 752.30 263.40 L 775.70 248.80 L 799.50 234.70 L 847.50 207.40 Z M 717.70 339.40 L 728.50 338.60 L 739.30 337.00 L 742.80 336.10 L 749.40 333.40 L 752.40 331.60 L 755.30 329.30 L 761.40 323.20 L 765.00 319.10 L 767.70 314.60 L 768.10 313.00 L 768.00 310.10 L 767.50 308.80 L 766.50 307.50 L 764.80 306.10 L 750.50 310.60 L 741.20 314.60 L 732.60 319.80 L 728.70 322.90 L 725.30 326.30 L 720.90 332.30 L 717.70 339.40 Z" fill="#a9eb30" fill-rule="nonzero" node-id="84" stroke="none" target-height="172.2" target-width="202.5" target-x="664.9" target-y="196.2"></path><path d="M 632.50 240.50 L 645.90 205.70 L 655.70 222.10 L 662.30 231.80 L 674.50 231.00 L 669.10 237.00 L 664.10 243.20 L 669.10 251.20 L 649.90 244.10 L 632.50 240.50 Z" fill="#d4f07e" fill-rule="nonzero" node-id="86" stroke="none" target-height="45.5" target-width="42" target-x="632.5" target-y="205.7"></path><path d="M 674.50 231.00 L 681.40 227.30 L 688.50 224.10 L 695.80 221.30 L 703.20 218.90 L 710.80 217.00 L 718.50 215.50 L 726.20 214.50 L 734.10 213.90 L 733.20 218.10 L 731.80 221.90 L 730.10 225.60 L 728.00 229.10 L 725.50 232.30 L 719.80 238.10 L 716.40 240.70 L 711.70 243.80 L 706.70 246.40 L 701.40 248.50 L 695.90 250.20 L 690.40 251.40 L 684.90 252.10 L 679.40 252.30 L 674.10 252.00 L 669.10 251.20 L 664.10 243.20 L 669.10 237.00 L 674.50 231.00 Z" fill="#f8f7f3" fill-rule="nonzero" node-id="88" stroke="none" target-height="38.40001" target-width="70" target-x="664.1" target-y="213.9"></path><path d="M 575.00 282.90 L 580.20 271.70 L 588.20 258.50 L 593.50 251.00 L 604.90 236.40 L 601.80 246.80 L 599.10 257.50 L 597.70 264.60 L 595.90 279.10 L 595.60 286.30 L 595.70 293.50 L 596.30 300.70 L 597.40 307.90 L 599.10 315.00 L 601.40 322.00 L 588.10 309.50 L 581.60 301.50 L 577.70 294.60 L 576.30 290.90 L 575.40 287.00 L 575.00 282.90 Z" fill="#2e6839" fill-rule="nonzero" node-id="90" stroke="none" target-height="85.600006" target-width="29.900024" target-x="575" target-y="236.4"></path><path d="M 440.70 309.70 L 449.00 301.30 L 452.80 296.70 L 473.90 267.60 L 479.50 260.70 L 485.30 254.20 L 489.50 250.20 L 494.00 246.50 L 498.70 243.20 L 501.70 246.60 L 498.00 252.00 L 494.80 257.50 L 492.30 263.20 L 490.20 269.00 L 488.50 275.00 L 487.20 281.20 L 485.80 290.50 L 483.50 318.90 L 482.40 319.20 L 483.50 314.00 L 481.20 311.60 L 479.00 309.90 L 476.90 309.00 L 474.70 308.70 L 472.40 308.90 L 470.00 309.80 L 467.30 311.50 L 464.20 314.10 L 449.90 321.50 L 440.70 309.70 Z" fill="#2e5b06" fill-rule="nonzero" node-id="92" stroke="none" target-height="78.3" target-width="61" target-x="440.7" target-y="243.2"></path><path d="M 616.60 347.00 L 627.80 340.40 L 672.00 312.20 L 683.30 305.70 L 691.00 301.70 L 699.00 298.00 L 707.10 294.70 L 685.20 317.40 L 678.10 325.10 L 671.30 333.00 L 664.90 341.30 L 664.90 343.80 L 665.50 345.90 L 666.50 347.70 L 669.40 350.90 L 677.20 355.70 L 682.60 358.30 L 688.00 360.40 L 693.50 362.10 L 702.00 364.10 L 710.60 365.50 L 719.30 366.40 L 745.60 368.40 L 734.10 375.80 L 723.50 378.10 L 713.00 379.80 L 702.30 380.90 L 691.60 381.60 L 681.00 381.80 L 670.20 381.50 L 659.50 380.80 L 638.20 378.30 L 616.60 347.00 Z" fill="#5fa02d" fill-rule="nonzero" node-id="94" stroke="none" target-height="87.099976" target-width="129" target-x="616.6" target-y="294.7"></path><path d="M 404.40 368.10 L 441.00 310.10 L 449.90 321.50 L 464.20 314.10 L 482.40 319.20 L 479.00 327.70 L 458.50 333.90 L 451.80 336.40 L 443.30 340.30 L 435.60 345.30 L 432.20 348.30 L 429.10 351.70 L 426.40 355.40 L 424.10 359.60 L 422.10 364.50 L 440.40 380.90 L 434.00 379.70 L 421.60 376.30 L 415.60 374.10 L 409.90 371.30 L 404.40 368.10 Z" fill="#4e6c07" fill-rule="nonzero" node-id="96" stroke="none" target-height="70.79999" target-width="78" target-x="404.4" target-y="310.1"></path><path d="M 553.20 336.10 L 576.70 327.30 L 592.70 347.90 L 596.50 353.20 L 601.90 362.60 L 605.10 370.60 L 598.10 374.50 L 588.70 377.70 L 559.40 383.50 L 556.50 359.80 L 553.20 336.10 Z" fill="#476200" fill-rule="nonzero" node-id="98" stroke="none" target-height="56.200012" target-width="51.899963" target-x="553.2" target-y="327.3"></path><path d="M 491.70 343.30 L 538.40 337.50 L 544.40 366.10 L 547.20 375.20 L 548.60 378.70 L 543.80 381.20 L 539.00 383.00 L 534.00 384.20 L 529.00 384.90 L 518.60 385.30 L 494.90 383.80 L 487.20 383.60 L 491.70 343.30 Z" fill="#5e7100" fill-rule="nonzero" node-id="100" stroke="none" target-height="47.799988" target-width="61.399963" target-x="487.2" target-y="337.5"></path><path d="M 442.60 370.30 L 442.10 367.00 L 442.00 364.20 L 442.40 361.70 L 443.00 359.50 L 444.50 356.90 L 446.40 354.50 L 448.90 352.50 L 454.60 349.30 L 458.00 348.00 L 478.00 342.10 L 476.90 356.80 L 475.30 371.40 L 473.30 385.90 L 459.20 384.00 L 454.90 382.80 L 452.10 381.70 L 449.70 380.30 L 447.40 378.50 L 445.50 376.40 L 443.90 373.70 L 442.60 370.30 Z" fill="#5b7800" fill-rule="nonzero" node-id="102" stroke="none" target-height="43.799988" target-width="36" target-x="442" target-y="342.1"></path><path d="M 605.80 378.70 L 613.60 379.90 L 691.50 489.10 L 717.70 525.30 L 726.20 537.70 L 742.20 563.10 L 753.50 582.50 L 764.30 602.30 L 796.00 662.00 L 821.60 709.00 L 828.80 722.80 L 840.00 746.10 L 847.90 765.20 L 851.30 774.90 L 854.40 784.80 L 857.00 794.80 L 849.80 799.80 L 835.00 808.70 L 827.40 812.60 L 817.00 817.40 L 806.40 821.70 L 795.50 825.50 L 773.50 832.10 L 762.20 834.80 L 745.30 838.40 L 728.20 841.60 L 694.20 847.00 L 655.20 851.60 L 616.00 855.90 L 589.80 858.30 L 563.60 860.40 L 537.40 862.10 L 511.10 863.20 L 484.90 863.70 L 458.60 863.70 L 439.00 863.10 L 419.40 862.10 L 399.80 860.60 L 380.30 858.60 L 360.80 856.10 L 341.40 853.00 L 322.00 849.30 L 302.70 845.00 L 274.20 837.40 L 260.10 833.30 L 246.00 828.80 L 236.80 825.50 L 218.70 818.00 L 209.90 813.80 L 201.30 809.10 L 192.90 804.00 L 200.10 804.20 L 214.20 805.70 L 224.80 807.60 L 235.20 809.90 L 266.50 817.50 L 277.00 819.70 L 292.50 822.60 L 307.90 825.10 L 323.40 827.20 L 338.90 828.80 L 359.60 830.50 L 380.30 831.60 L 401.00 832.20 L 442.60 831.90 L 463.40 831.10 L 494.60 829.50 L 525.80 827.30 L 650.20 817.00 L 690.20 813.10 L 710.30 810.80 L 730.20 807.90 L 743.40 805.50 L 756.50 802.70 L 769.50 799.40 L 779.10 796.50 L 788.50 793.30 L 797.90 789.60 L 807.30 785.50 L 806.20 774.70 L 804.50 764.10 L 802.30 753.50 L 796.70 732.80 L 793.20 722.60 L 787.70 707.40 L 781.70 692.30 L 769.30 662.50 L 761.00 643.80 L 752.20 625.40 L 742.90 607.30 L 733.10 589.40 L 722.90 571.70 L 712.40 554.20 L 696.10 528.30 L 679.40 502.70 L 628.00 426.80 L 617.20 409.60 L 612.40 400.60 L 607.10 388.30 L 604.90 381.80 L 605.80 378.70 Z M 812.60 802.50 L 815.60 804.60 L 817.90 805.70 L 819.80 806.00 L 821.60 805.70 L 823.10 805.00 L 824.30 803.80 L 825.70 800.50 L 826.00 796.20 L 824.90 791.90 L 823.90 789.90 L 822.50 788.20 L 820.80 786.70 L 818.90 785.70 L 816.50 785.20 L 813.60 785.20 L 811.30 787.10 L 809.70 789.00 L 808.70 790.80 L 808.30 792.80 L 808.40 794.90 L 809.10 797.10 L 810.40 799.70 L 812.60 802.50 Z M 727.00 816.30 L 726.30 819.70 L 726.20 822.30 L 726.70 824.00 L 727.50 825.30 L 728.80 826.20 L 730.60 826.60 L 733.10 826.70 L 736.60 826.00 L 737.20 822.50 L 737.20 819.90 L 736.70 818.10 L 735.80 816.90 L 734.60 816.00 L 732.80 815.50 L 730.40 815.60 L 727.00 816.30 Z" fill="#d4cfd4" fill-rule="nonzero" node-id="104" stroke="none" target-height="485" target-width="664.1" target-x="192.9" target-y="378.7"></path><path d="M 638.20 378.30 L 648.90 379.80 L 670.20 381.50 L 681.00 381.80 L 691.60 381.60 L 702.30 380.90 L 713.00 379.80 L 723.50 378.10 L 734.10 375.80 L 732.10 380.10 L 729.80 384.10 L 727.20 387.60 L 724.30 390.90 L 717.70 396.50 L 710.20 401.10 L 704.80 403.50 L 699.20 405.40 L 693.30 406.90 L 687.40 408.00 L 669.80 409.70 L 665.00 408.90 L 662.00 407.70 L 659.30 406.00 L 656.70 403.90 L 653.30 400.10 L 650.10 395.80 L 641.20 382.20 L 638.20 378.30 Z" fill="#2a7628" fill-rule="nonzero" node-id="106" stroke="none" target-height="33.900024" target-width="95.89996" target-x="638.2" target-y="375.8"></path><path d="M 386.60 440.20 L 389.40 439.50 L 391.60 439.40 L 393.30 439.80 L 394.70 440.60 L 395.80 441.70 L 397.00 444.80 L 396.90 448.50 L 396.10 451.40 L 394.70 454.10 L 392.00 457.10 L 390.30 458.20 L 388.40 458.90 L 386.40 459.20 L 384.10 459.00 L 382.10 458.30 L 380.60 457.50 L 378.80 455.10 L 378.10 452.10 L 378.40 449.60 L 379.20 447.10 L 380.50 444.70 L 383.50 441.60 L 386.60 440.20 Z" fill="#9b9697" fill-rule="nonzero" node-id="108" stroke="none" target-height="19.800018" target-width="18.899994" target-x="378.1" target-y="439.4"></path><path d="M 353.10 478.20 L 371.60 480.60 L 370.80 484.10 L 369.60 487.80 L 367.90 491.20 L 365.90 494.10 L 364.20 495.80 L 362.40 497.00 L 360.30 497.80 L 358.10 498.10 L 355.50 497.80 L 352.50 496.80 L 350.40 496.70 L 349.10 496.30 L 348.40 495.60 L 347.90 494.70 L 347.90 492.00 L 348.50 489.70 L 353.10 478.20 Z" fill="#9ea0ac" fill-rule="nonzero" node-id="110" stroke="none" target-height="19.899994" target-width="23.700012" target-x="347.9" target-y="478.2"></path><path d="M 605.60 579.60 L 605.70 577.10 L 606.90 573.00 L 607.90 571.30 L 609.60 569.40 L 611.70 567.80 L 614.20 566.60 L 619.90 565.30 L 623.10 565.20 L 629.60 565.90 L 636.20 567.90 L 639.20 569.30 L 644.80 572.90 L 647.10 575.10 L 649.00 577.60 L 650.50 580.20 L 651.50 583.10 L 652.00 586.20 L 628.70 583.40 L 617.10 581.70 L 605.60 579.60 Z" fill="#010101" fill-rule="nonzero" node-id="112" stroke="none" target-height="21" target-width="46.400024" target-x="605.6" target-y="565.2"></path><path d="M 326.30 584.60 L 327.90 581.60 L 332.00 576.40 L 334.50 574.10 L 338.20 571.50 L 342.10 569.40 L 346.30 567.70 L 350.70 566.50 L 355.10 566.00 L 359.40 566.00 L 362.70 566.40 L 368.80 568.20 L 371.70 569.70 L 374.30 571.50 L 376.60 573.80 L 378.80 576.50 L 380.70 579.70 L 362.70 582.40 L 353.60 583.30 L 339.90 584.20 L 326.30 584.60 Z" fill="#010105" fill-rule="nonzero" node-id="114" stroke="none" target-height="18.599976" target-width="54.400024" target-x="326.3" target-y="566"></path><path d="M 607.40 631.90 L 611.20 630.10 L 614.90 628.80 L 618.80 628.00 L 622.60 627.60 L 630.40 628.20 L 637.90 630.30 L 642.70 632.40 L 647.30 635.10 L 651.50 638.30 L 655.30 642.00 L 658.70 646.00 L 661.50 650.40 L 663.20 653.90 L 664.60 657.50 L 665.50 661.20 L 666.10 665.00 L 666.20 668.90 L 665.80 672.70 L 664.90 676.70 L 663.40 680.70 L 656.40 676.50 L 645.30 661.20 L 642.30 657.60 L 638.90 654.50 L 636.40 652.70 L 630.70 649.90 L 627.80 649.60 L 625.00 649.80 L 622.50 650.40 L 618.80 652.00 L 604.80 661.60 L 601.20 663.40 L 598.80 664.20 L 596.20 664.60 L 593.50 664.50 L 591.30 662.70 L 588.50 659.10 L 587.80 657.30 L 587.30 654.80 L 587.40 652.20 L 588.20 649.60 L 589.30 647.10 L 592.80 642.20 L 596.10 638.80 L 599.80 635.90 L 603.70 633.50 L 607.40 631.90 Z" fill="#010201" fill-rule="nonzero" node-id="116" stroke="none" target-height="53.100037" target-width="78.900024" target-x="587.3" target-y="627.6"></path><path d="M 332.90 641.00 L 335.90 638.40 L 339.20 636.10 L 342.60 634.20 L 346.30 632.70 L 354.00 630.70 L 362.00 630.20 L 367.40 630.60 L 372.60 631.60 L 377.70 633.20 L 381.30 634.80 L 387.90 639.00 L 390.90 641.50 L 393.50 644.40 L 395.80 647.60 L 397.70 651.10 L 399.30 655.00 L 398.60 658.60 L 397.70 661.20 L 396.70 662.90 L 395.20 664.30 L 393.60 665.20 L 391.80 665.60 L 387.80 665.20 L 382.10 663.00 L 371.50 657.40 L 365.30 654.60 L 359.90 653.30 L 355.20 653.60 L 352.20 654.50 L 349.40 655.90 L 346.80 657.70 L 343.10 661.10 L 339.70 665.10 L 336.50 669.40 L 328.40 682.10 L 317.70 681.70 L 317.90 671.70 L 318.60 666.60 L 319.70 661.70 L 321.20 657.00 L 323.30 652.60 L 325.20 649.40 L 330.00 643.60 L 332.90 641.00 Z" fill="#010202" fill-rule="nonzero" node-id="118" stroke="none" target-height="51.899963" target-width="81.599976" target-x="317.7" target-y="630.2"></path><path d="M 451.90 635.70 L 480.80 634.40 L 495.30 634.20 L 524.30 634.80 L 538.80 635.60 L 539.40 646.90 L 539.60 658.20 L 539.20 669.50 L 538.40 680.90 L 537.00 692.10 L 535.30 703.30 L 533.10 714.40 L 530.50 725.40 L 527.60 734.40 L 525.50 738.90 L 523.00 743.10 L 520.20 747.10 L 517.10 750.80 L 511.70 755.40 L 505.60 758.80 L 502.40 760.00 L 498.90 760.70 L 495.30 760.90 L 491.40 760.70 L 487.80 760.00 L 481.60 757.70 L 478.80 756.00 L 475.30 753.30 L 472.20 750.20 L 469.40 746.70 L 466.90 742.90 L 462.70 734.80 L 460.30 728.30 L 458.50 722.10 L 454.60 703.10 L 453.10 693.60 L 451.10 674.40 L 450.60 664.70 L 450.60 655.00 L 451.00 645.40 L 451.90 635.70 Z M 457.90 646.20 L 462.70 678.80 L 466.80 700.30 L 469.50 711.00 L 475.00 725.60 L 478.90 733.40 L 483.10 738.70 L 485.60 740.80 L 488.60 742.60 L 492.10 744.00 L 495.70 744.00 L 498.80 743.40 L 501.60 742.40 L 504.10 740.90 L 506.40 739.10 L 508.50 736.80 L 511.20 733.10 L 513.60 728.80 L 515.60 724.30 L 520.70 711.10 L 521.30 711.10 L 524.60 694.90 L 527.20 678.60 L 528.60 667.70 L 529.50 656.70 L 530.00 645.70 L 457.90 646.20 Z" fill="#030404" fill-rule="nonzero" node-id="120" stroke="none" target-height="126.70001" target-width="88.99997" target-x="450.6" target-y="634.2"></path><path d="M 457.90 646.20 L 530.00 645.70 L 529.50 656.70 L 528.60 667.70 L 527.20 678.60 L 524.60 694.90 L 521.30 711.10 L 495.10 711.30 L 469.50 711.00 L 466.80 700.30 L 464.60 689.60 L 462.70 678.80 L 457.90 646.20 Z" fill="#d84b80" fill-rule="nonzero" node-id="122" stroke="none" target-height="65.599976" target-width="72.100006" target-x="457.9" target-y="645.7"></path><path d="M 656.40 676.50 L 663.40 680.70 L 683.40 684.10 L 693.30 686.60 L 696.40 687.80 L 702.20 691.00 L 704.70 693.10 L 707.00 695.60 L 710.40 700.60 L 711.60 704.80 L 711.20 709.60 L 710.40 712.40 L 709.00 715.00 L 705.40 719.90 L 700.70 724.00 L 695.80 726.80 L 688.80 729.00 L 681.70 730.70 L 674.60 731.80 L 667.30 732.40 L 660.00 732.40 L 652.80 732.00 L 645.60 731.00 L 638.50 729.50 L 631.40 727.50 L 624.60 725.00 L 618.00 722.00 L 611.60 718.50 L 612.20 715.30 L 613.60 701.60 L 615.30 696.40 L 618.00 692.80 L 624.10 689.50 L 630.40 686.50 L 656.40 676.50 Z" fill="#ff9bbb" fill-rule="nonzero" node-id="124" stroke="none" target-height="55.900024" target-width="100" target-x="611.6" target-y="676.5"></path><path d="M 275.90 692.40 L 280.10 689.70 L 284.40 687.50 L 288.90 685.80 L 298.30 683.50 L 310.50 682.10 L 317.70 681.70 L 328.40 682.10 L 339.40 683.90 L 345.00 685.20 L 350.40 686.80 L 353.90 688.20 L 360.20 691.80 L 363.00 694.20 L 365.50 697.00 L 367.60 700.30 L 368.60 702.90 L 369.10 705.60 L 369.20 708.30 L 368.80 711.00 L 367.00 716.20 L 363.90 720.80 L 359.80 724.50 L 355.00 726.90 L 349.30 729.00 L 343.50 730.60 L 337.60 731.90 L 331.50 732.80 L 325.50 733.30 L 313.40 733.10 L 301.30 731.50 L 289.70 728.40 L 281.40 725.30 L 279.20 724.00 L 275.30 720.60 L 273.30 717.90 L 271.80 714.80 L 270.80 711.60 L 270.30 708.20 L 270.30 704.80 L 270.80 701.40 L 271.90 698.20 L 273.60 695.20 L 275.90 692.40 Z" fill="#ff9bbb" fill-rule="nonzero" node-id="126" stroke="none" target-height="51.599976" target-width="98.900024" target-x="270.3" target-y="681.7"></path><path d="M 469.50 711.00 L 495.10 711.30 L 520.70 711.10 L 515.60 724.30 L 513.60 728.80 L 511.20 733.10 L 508.50 736.80 L 506.40 739.10 L 504.10 740.90 L 501.60 742.40 L 498.80 743.40 L 495.70 744.00 L 492.10 744.00 L 488.60 742.60 L 485.60 740.80 L 483.10 738.70 L 478.90 733.40 L 475.00 725.60 L 469.50 711.00 Z" fill="#ff93b7" fill-rule="nonzero" node-id="128" stroke="none" target-height="33" target-width="51.200012" target-x="469.5" target-y="711"></path><path d="M 368.50 778.90 L 373.10 776.20 L 377.30 775.40 L 380.00 775.60 L 382.70 776.40 L 385.30 777.80 L 387.60 779.60 L 389.80 781.80 L 393.60 787.30 L 396.30 793.60 L 397.80 800.30 L 397.90 806.80 L 397.30 809.80 L 396.40 812.50 L 393.10 812.60 L 390.00 812.00 L 387.10 811.00 L 384.40 809.60 L 381.90 807.70 L 379.60 805.50 L 375.60 800.30 L 373.90 797.40 L 371.80 792.80 L 370.20 788.00 L 369.00 783.30 L 368.50 778.90 Z" fill="#8e8c8f" fill-rule="nonzero" node-id="130" stroke="none" target-height="37.19995" target-width="29.399994" target-x="368.5" target-y="775.4"></path><path d="M 727.00 816.30 L 730.40 815.60 L 732.80 815.50 L 734.60 816.00 L 735.80 816.90 L 736.70 818.10 L 737.20 819.90 L 737.20 822.50 L 736.60 826.00 L 733.10 826.70 L 730.60 826.60 L 728.80 826.20 L 727.50 825.30 L 726.70 824.00 L 726.20 822.30 L 726.30 819.70 L 727.00 816.30 Z" fill="#837f86" fill-rule="nonzero" node-id="132" stroke="none" target-height="11.200012" target-width="11" target-x="726.2" target-y="815.5"></path></svg>